Coordinates
version=1
nRows=38
nColumns=12
inDegrees=yes

Units are S.I. units (second, meters, Newtons, ...)
Angles are in degrees

endheader
time	SC_y	SC_z	SC_x	AC_y	AC_z	AC_x	GH_y	GH_z	GH_yy	EL_x	PS_y
       0.0              -24.04          20.09          35.27          63.98          1.944         -10.01          146.3          46.21          32.29          18.74           31.0
  0.007229              -24.04           20.1          35.28          63.98          1.944         -10.01          146.3          46.21          32.28          18.74          31.01
   0.01446              -24.04           20.1          35.28          63.97          1.944         -10.01          146.3          46.22          32.27          18.75          31.03
   0.02169              -24.04           20.1          35.29          63.97          1.944         -10.01          146.3          46.22          32.27          18.76          31.05
   0.02892              -24.05           20.1          35.29          63.97          1.944         -10.01          146.2          46.22          32.26          18.77          31.06
   0.03614              -24.05          20.11           35.3          63.96          1.945         -10.01          146.2          46.22          32.25          18.78          31.08
   0.04337              -24.06          20.11          35.31          63.96          1.945          -10.0          146.2          46.22          32.24           18.8           31.1
    0.0506              -24.06          20.11          35.31          63.95          1.945          -10.0          146.1          46.23          32.23          18.81          31.12
   0.05783              -24.06          20.12          35.32          63.95          1.945         -9.999          146.1          46.23          32.22          18.82          31.15
   0.06506              -24.07          20.12          35.33          63.95          1.946         -9.996          146.0          46.23          32.21          18.84          31.17
   0.07229              -24.07          20.13          35.33          63.94          1.946         -9.993          146.0          46.23           32.2          18.85           31.2
   0.07952              -24.08          20.13          35.34          63.94          1.946          -9.99          145.9          46.24          32.19          18.87          31.22
   0.08675              -24.08          20.14          35.35          63.93          1.946         -9.986          145.9          46.24          32.18          18.89          31.25
   0.09398              -24.09          20.14          35.36          63.92          1.947         -9.983          145.8          46.24          32.16          18.91          31.29
    0.1012               -24.1          20.15          35.37          63.92          1.947         -9.979          145.7          46.25          32.15          18.93          31.32
    0.1084              -24.11          20.16          35.39          63.91          1.947         -9.975          145.7          46.25          32.13          18.95          31.36
    0.1157              -24.11          20.16           35.4           63.9          1.948          -9.97          145.6          46.26          32.11          18.98           31.4
    0.1229              -24.12          20.17          35.41          63.89          1.948         -9.965          145.5          46.26          32.09           19.0          31.45
    0.1301              -24.13          20.18          35.43          63.88          1.949         -9.959          145.4          46.27          32.07          19.03           31.5
    0.1373              -24.14          20.19          35.45          63.87          1.949         -9.953          145.3          46.27          32.05          19.07          31.55
    0.1446              -24.15           20.2          35.46          63.86           1.95         -9.946          145.2          46.28          32.02           19.1          31.61
    0.1518              -24.17          20.21          35.48          63.85          1.951         -9.939          145.1          46.29          31.99          19.14          31.67
     0.159              -24.18          20.23          35.51          63.83          1.951         -9.931          145.0          46.29          31.96          19.18          31.75
    0.1663               -24.2          20.24          35.53          63.82          1.952         -9.922          144.8           46.3          31.93          19.23          31.83
    0.1735              -24.21          20.26          35.56           63.8          1.953         -9.912          144.6          46.31          31.89          19.29          31.92
    0.1807              -24.23          20.27          35.59          63.78          1.954         -9.901          144.5          46.32          31.85          19.35          32.01
     0.188              -24.26          20.29          35.63          63.76          1.955         -9.888          144.2          46.33           31.8          19.41          32.13
    0.1952              -24.28          20.31          35.67          63.73          1.956         -9.874          144.0          46.35          31.74          19.49          32.25
    0.2024              -24.31          20.34          35.71           63.7          1.958         -9.858          143.7          46.36          31.68          19.57          32.39
    0.2096              -24.34          20.37          35.76          63.67          1.959          -9.84          143.4          46.38          31.61          19.67          32.55
    0.2169              -24.37           20.4          35.82          63.64          1.961          -9.82          143.1           46.4          31.53          19.78          32.74
    0.2241              -24.42          20.44          35.88          63.59          1.963         -9.796          142.7          46.42          31.44          19.91          32.95
    0.2313              -24.46          20.48          35.96          63.55          1.966         -9.769          142.3          46.45          31.34          20.05          33.19
    0.2386              -24.52          20.53          36.05          63.49          1.968         -9.737          141.7          46.48          31.21          20.22          33.47
    0.2458              -24.58          20.59          36.15          63.42          1.972           -9.7          141.1          46.52          31.07          20.42           33.8
     0.253              -24.66          20.66          36.27          63.35          1.975         -9.656          140.4          46.56           30.9          20.65          34.19
    0.2602              -24.75          20.74          36.42          63.26           1.98         -9.604          139.5          46.61           30.7          20.93          34.65
    0.2675              -24.86          20.84          36.59          63.15          1.985         -9.542          138.5          46.67          30.46          21.27           35.2
